<svg width="20" height="20" viewBox="0 0 20 20" fill="none" xmlns="http://www.w3.org/2000/svg">
<g clip-path="url(#clip0_11013_12017)">
<path d="M9.13518 1.87492C9.47558 1.13694 10.5244 1.13695 10.8648 1.87492L12.5981 5.63263C12.7368 5.9334 13.0218 6.14049 13.3508 6.17949L17.4602 6.66672C18.2672 6.76241 18.5913 7.75992 17.9947 8.3117L14.9565 11.1213C14.7133 11.3462 14.6044 11.6813 14.669 12.0062L15.4755 16.065C15.6338 16.8621 14.7853 17.4786 14.0762 17.0817L10.4652 15.0604C10.1762 14.8986 9.82384 14.8986 9.53482 15.0604L5.92385 17.0817C5.21469 17.4786 4.36616 16.8621 4.52455 16.065L5.33103 12.0062C5.39558 11.6813 5.28671 11.3462 5.04353 11.1213L2.00535 8.3117C1.40868 7.75992 1.73279 6.76241 2.53983 6.66672L6.64924 6.17949C6.97815 6.14049 7.26319 5.9334 7.40192 5.63263L9.13518 1.87492Z" fill="white"/>
</g>
<defs>
<clipPath id="clip0_11013_12017">
<rect width="20" height="20" fill="white"/>
</clipPath>
</defs>
</svg>
