<svg width="50" height="50" viewBox="0 0 50 50" fill="none" xmlns="http://www.w3.org/2000/svg">
<path fill-rule="evenodd" clip-rule="evenodd" d="M7.45904 35.7237L22.3923 11.4572C23.5879 9.51428 26.4121 9.51428 27.6077 11.4572L42.541 35.7237C43.7964 37.7638 42.3286 40.3904 39.9332 40.3904H10.0667C7.67135 40.3904 6.20362 37.7638 7.45904 35.7237ZM23 20.9217C23 19.8604 23.8604 19 24.9217 19C25.983 19 26.8434 19.8604 26.8434 20.9217V27.1536C26.8434 28.2149 25.983 29.0753 24.9217 29.0753C23.8604 29.0753 23 28.2149 23 27.1536V20.9217ZM24.9227 34.9207C25.9846 34.9207 26.8454 34.0599 26.8454 32.998C26.8454 31.9361 25.9846 31.0753 24.9227 31.0753C23.8608 31.0753 23 31.9361 23 32.998C23 34.0599 23.8608 34.9207 24.9227 34.9207Z" fill="#E7E7E7"/>
</svg>
