<svg width="17" height="19" viewBox="0 0 17 19" fill="none" xmlns="http://www.w3.org/2000/svg">
<path fill-rule="evenodd" clip-rule="evenodd" d="M16.7928 14.9188L13.5733 18.0823C13.3056 18.3454 12.8765 18.3454 12.6088 18.0823L9.38931 14.9188C8.95002 14.4872 9.25566 13.7401 9.87153 13.7401L11.0898 13.7401L11.0898 7.54794C11.0898 6.408 12.0139 5.48389 13.1538 5.48389C14.2938 5.48389 15.2179 6.408 15.2179 7.54794L15.2179 13.7401L16.3106 13.7401C16.9264 13.7401 17.2321 14.4872 16.7928 14.9188Z" fill="white"/>
<path fill-rule="evenodd" clip-rule="evenodd" d="M0.2604 4.22449L4.30734 0.247946C4.64381 -0.082671 5.18315 -0.082671 5.51962 0.247946L9.56656 4.22449C10.1187 4.76707 9.73456 5.7062 8.96041 5.7062H7.42907L7.42907 13.4897C7.42907 14.9226 6.26747 16.0842 4.83457 16.0842C3.40166 16.0842 2.24006 14.9226 2.24006 13.4897L2.24006 5.7062H0.866544C0.0923944 5.7062 -0.291788 4.76707 0.2604 4.22449Z" fill="white"/>
</svg>
