<svg width="20" height="20" viewBox="0 0 20 20" fill="none" xmlns="http://www.w3.org/2000/svg">
<path fill-rule="evenodd" clip-rule="evenodd" d="M4.55479 2.27224C4.3206 1.86662 4.45958 1.34795 4.8652 1.11376C5.27083 0.879574 5.78949 1.01855 6.02368 1.42417L7.02333 3.15562C7.94515 2.66216 8.97737 2.38586 10.0672 2.38586C11.1738 2.38586 12.2209 2.67068 13.1534 3.17844L14.1662 1.42418C14.4004 1.01855 14.9191 0.879574 15.3247 1.11376C15.7303 1.34795 15.8693 1.86662 15.6351 2.27224L14.5387 4.17129C15.3448 4.90983 16.0026 5.84391 16.4543 6.90888H3.6801C4.13858 5.82794 4.80937 4.88185 5.63211 4.13821L4.55479 2.27224ZM9.21915 18.16L9.21915 11.1492C9.21915 10.6808 9.59884 10.3011 10.0672 10.3011C10.5356 10.3011 10.9153 10.6808 10.9153 11.1492L10.9153 18.16C14.4186 17.6908 17.1344 14.3512 17.1344 10.3011C17.1344 9.71895 17.0783 9.15143 16.9718 8.60501H3.16264C3.05612 9.15143 3 9.71895 3 10.3011C3 14.3512 5.71588 17.6908 9.21915 18.16Z" fill="white"/>
</svg>
