<svg width="20" height="20" viewBox="0 0 20 20" fill="none" xmlns="http://www.w3.org/2000/svg">
<path fill-rule="evenodd" clip-rule="evenodd" d="M3 3.70948C3 2.21307 4.21307 1 5.70947 1H14.7411C16.2375 1 17.4505 2.21307 17.4505 3.70947V15.4505C17.4505 16.9469 16.2375 18.16 14.7411 18.16H5.70947C4.21307 18.16 3 16.9469 3 15.4505V3.70948ZM6.61259 6.41896C6.61259 5.92016 7.01695 5.51581 7.51575 5.51581L12.9347 5.51581C13.4335 5.51581 13.8379 5.92016 13.8379 6.41896C13.8379 6.91777 13.4335 7.32212 12.9347 7.32212L7.51575 7.32212C7.01695 7.32212 6.61259 6.91776 6.61259 6.41896ZM7.51575 10.0316C7.01695 10.0316 6.61259 10.436 6.61259 10.9348C6.61259 11.4336 7.01695 11.8379 7.51575 11.8379L11.1284 11.8379C11.6272 11.8379 12.0315 11.4336 12.0315 10.9348C12.0315 10.436 11.6272 10.0316 11.1284 10.0316H7.51575Z" fill="white"/>
</svg>
