<svg width="20" height="20" viewBox="0 0 20 20" fill="none" xmlns="http://www.w3.org/2000/svg">
<path fill-rule="evenodd" clip-rule="evenodd" d="M12.2898 3.0112C14.5016 3.84793 16.0743 5.98551 16.0743 8.49041V11.2365C16.8729 11.5597 17.4362 12.3426 17.4362 13.2571C17.4362 14.4606 16.4606 15.4362 15.2571 15.4362H5.17905C3.97559 15.4362 3 14.4606 3 13.2571C3 12.3426 3.56335 11.5597 4.36195 11.2364V8.49041C4.36195 5.97439 5.94863 3.82896 8.17595 3.00014C8.20637 1.89033 9.11559 1 10.2327 1C11.3536 1 12.2652 1.89625 12.2898 3.0112ZM12.1054 17.3246C12.208 17.0768 12.2609 16.8111 12.2609 16.5429H10.218H8.17517C8.17517 16.8111 8.22801 17.0768 8.33067 17.3246C8.43334 17.5725 8.58381 17.7977 8.77351 17.9874C8.96321 18.1771 9.18841 18.3275 9.43626 18.4302C9.68411 18.5329 9.94976 18.5857 10.218 18.5857C10.4863 18.5857 10.7519 18.5329 10.9998 18.4302C11.2476 18.3275 11.4728 18.1771 11.6625 17.9874C11.8522 17.7977 12.0027 17.5725 12.1054 17.3246Z" fill="white"/>
</svg>
