<svg width="23" height="23" viewBox="0 0 23 23" fill="none" xmlns="http://www.w3.org/2000/svg">
<g clip-path="url(#clip0_8388_34906)">
<path d="M16.8229 3.30574L16.4693 2.95218L16.8229 3.30573C17.3761 2.75249 18.2731 2.75249 18.8263 3.30573L19.7299 4.20926C20.2831 4.7625 20.2831 5.65948 19.7299 6.21273L19.6699 6.27274C19.1274 6.81523 19.0343 7.61604 19.3068 8.27474L19.7688 8.08363L19.3068 8.27474C19.5782 8.93081 20.2115 9.44444 20.9837 9.44444H21.0833C21.8657 9.44444 22.5 10.0787 22.5 10.8611V12.1389C22.5 12.9213 21.8657 13.5556 21.0833 13.5556H21.0263C20.2374 13.5556 19.5894 14.0731 19.311 14.7504C19.0353 15.4212 19.1213 16.2501 19.6794 16.8083L19.7299 16.8587C20.2831 17.412 20.2831 18.309 19.7299 18.8622L18.8263 19.7657C18.2731 20.319 17.3761 20.319 16.8229 19.7657L16.7606 19.7034C16.2095 19.1524 15.3912 19.0672 14.7292 19.3408C14.063 19.6161 13.5556 20.2547 13.5556 21.0308V21.0833C13.5556 21.8657 12.9213 22.5 12.1389 22.5H10.8611C10.0787 22.5 9.44444 21.8657 9.44444 21.0833V21.031C9.44444 20.2548 8.93691 19.6161 8.27065 19.3408C7.60865 19.0672 6.79018 19.1524 6.23911 19.7035L6.17699 19.7656C5.62374 20.3188 4.72676 20.3189 4.17352 19.7656L3.26999 18.8621C2.71675 18.3088 2.71675 17.4119 3.26999 16.8586L3.3204 16.8082L2.96685 16.4546L3.32041 16.8082C3.87853 16.2501 3.96451 15.4212 3.6888 14.7504C3.41038 14.0731 2.76238 13.5556 1.9735 13.5556H1.91667C1.13426 13.5556 0.5 12.9213 0.5 12.1389V10.8611C0.5 10.0787 1.13426 9.44444 1.91667 9.44444H2.01636C2.78854 9.44444 3.42184 8.93084 3.69318 8.27482C3.9656 7.61617 3.87257 6.81544 3.33013 6.27299L3.27 6.21286C2.71675 5.65962 2.71675 4.76264 3.27 4.20939L4.17352 3.30587C4.72677 2.75262 5.62375 2.75262 6.17699 3.30587L6.20574 3.33461C6.76096 3.88983 7.58115 3.98223 8.25407 3.70179C8.92108 3.42382 9.44444 2.77918 9.44444 1.99276V1.91667C9.44444 1.13426 10.0787 0.5 10.8611 0.5H12.1389C12.9213 0.5 13.5556 1.13426 13.5556 1.91667V1.99284C13.5556 2.77921 14.0789 3.42381 14.7458 3.70176C15.4187 3.98217 16.2388 3.88977 16.794 3.33459L16.8229 3.30574ZM11.525 17.1499C14.6316 17.1499 17.15 14.6315 17.15 11.5249C17.15 8.4183 14.6316 5.8999 11.525 5.8999C8.41842 5.8999 5.90002 8.4183 5.90002 11.5249C5.90002 14.6315 8.41842 17.1499 11.525 17.1499Z" fill="#E7E7E7" stroke="#E7E7E7"/>
</g>
<defs>
<clipPath id="clip0_8388_34906">
<rect width="23" height="23" fill="white"/>
</clipPath>
</defs>
</svg>
